<svg xmlns="http://www.w3.org/2000/svg" id="Group_7" data-name="Group 7" viewBox="0 0 85.883 19.263"><defs><style>.cls-1{fill:#70b62c}</style></defs><path id="Path_17" d="M471.5 11.627a3.9 3.9 0 0 0 1.233 2.928 3.886 3.886 0 0 0 2.959 1.233 4.089 4.089 0 0 0 2.959-1.233 3.816 3.816 0 0 0 1.264-2.928 3.859 3.859 0 0 0-1.264-2.959 4.029 4.029 0 0 0-2.951-1.233 3.941 3.941 0 0 0-2.959 1.233 3.989 3.989 0 0 0-1.233 2.959m-2.6 0a6.774 6.774 0 0 1 .539-2.635 6.738 6.738 0 0 1 1.425-2.192 7.673 7.673 0 0 1 2.188-1.464 6.341 6.341 0 0 1 2.64-.536 6.25 6.25 0 0 1 2.6.539 5.672 5.672 0 0 1 1.171.632 10.42 10.42 0 0 1 1.017.832 7.67 7.67 0 0 1 1.464 2.188 6.192 6.192 0 0 1 .57 2.635 6.105 6.105 0 0 1-.57 2.6 6.1 6.1 0 0 1-.632 1.171 10.415 10.415 0 0 1-.832 1.017q-.485.439-1.017.832a5.357 5.357 0 0 1-1.171.632 6.3 6.3 0 0 1-5.24 0 7.673 7.673 0 0 1-2.188-1.464 10.262 10.262 0 0 1-.817-1.017 6.042 6.042 0 0 1-.616-1.171 6.682 6.682 0 0 1-.539-2.6" data-name="Path 17" transform="translate(-396.64 -4.06)"/><path id="Rectangle_7" d="M0 0h11.82v2.419H0z" class="cls-1" data-name="Rectangle 7" transform="translate(73.247 16.027)"/><path id="Path_18" d="M267.612 6.6v2.419h-7.027v15.01h-2.419V9.019H251.2V6.6h16.412z" data-name="Path 18" transform="translate(-212.489 -5.583)"/><path id="Path_19" d="M15.38 12.868l-4.731 6.4-4.484-6.4-3.237 5.578H0L5.933 8.229l1.6 2.265 3.175 4.484 3.282-4.484-3.282-5.5L8.63 8.6l-1.6-2.265L10.71 0l10.88 18.446h-2.928z" data-name="Path 19"/><path id="Path_20" d="M161.162 8.974a5.7 5.7 0 0 1 1.2 3.591 5.408 5.408 0 0 1-1.2 3.56 6.725 6.725 0 0 1-2.762 1.925 3.536 3.536 0 0 1-.432.139l4.685 5.625h-3.467l-4.269-5.24h-3.082v-2.512h3.621a6.257 6.257 0 0 0 2.744-.662 3.025 3.025 0 0 0 1.741-2.836 3.188 3.188 0 0 0-.539-1.911 5.1 5.1 0 0 0-3.961-1.818h-5.625v14.979H147.4V6.4h7.551a9 9 0 0 1 2.651.324 6.372 6.372 0 0 1 3.56 2.25z" data-name="Path 20" transform="translate(-124.685 -5.414)"/><g id="Group_6" data-name="Group 6" transform="translate(56.696 1.017)"><path id="Path_21" d="M370.319 16.524v-7.5h11.034V6.6H367.9v17.429h2.419v-.015h11.034v-2.466h-11.034v-5.024z" data-name="Path 21" transform="translate(-367.9 -6.6)"/><path id="Rectangle_8" d="M0 0h6.919v2.481H0z" data-name="Rectangle 8" transform="translate(4.238 7.412)"/></g></svg>