<?xml version="1.0" encoding="utf-8"?>
<!-- Generator: Adobe Illustrator 22.0.1, SVG Export Plug-In . SVG Version: 6.00 Build 0)  -->
<svg version="1.1" id="Ebene_1" xmlns="http://www.w3.org/2000/svg" xmlns:xlink="http://www.w3.org/1999/xlink" x="0px" y="0px"
	 viewBox="0 0 400 95" style="enable-background:new 0 0 400 95;" xml:space="preserve">
<style type="text/css">
	.st0{fill:#F09100;}
</style>
<g>
	<path class="st0" d="M200,85.1L200,85.1L200,85.1L200,85.1L200,85.1c0-0.8,0.6-1.4,1.4-1.4l0,0c0.8,0,1.4,0.6,1.4,1.4l0,0l0,0l0,0
		l0,0l0,0c0,0.8-0.6,1.4-1.4,1.4l0,0C200.6,86.5,200,85.9,200,85.1z"/>
	<path class="st0" d="M200,93.5L200,93.5L200,93.5L200,93.5L200,93.5c0-0.8,0.6-1.4,1.4-1.4l0,0c0.8,0,1.4,0.6,1.4,1.4l0,0l0,0l0,0
		l0,0l0,0c0,0.8-0.6,1.4-1.4,1.4l0,0C200.6,94.9,200,94.2,200,93.5z"/>
	<path class="st0" d="M200,76.7L200,76.7L200,76.7L200,76.7L200,76.7c0-0.8,0.6-1.4,1.4-1.4l0,0c0.8,0,1.4,0.6,1.4,1.4l0,0l0,0l0,0
		l0,0l0,0c0,0.8-0.6,1.4-1.4,1.4l0,0C200.6,78.1,200,77.5,200,76.7z"/>
	<path class="st0" d="M200,68.4L200,68.4L200,68.4L200,68.4L200,68.4c0-0.8,0.6-1.4,1.4-1.4l0,0c0.8,0,1.4,0.6,1.4,1.4l0,0l0,0l0,0
		l0,0l0,0c0,0.8-0.6,1.4-1.4,1.4l0,0C200.6,69.8,200,69.1,200,68.4z"/>
	<path class="st0" d="M200,60L200,60L200,60L200,60L200,60c0-0.8,0.6-1.4,1.4-1.4l0,0c0.8,0,1.4,0.6,1.4,1.4l0,0l0,0l0,0l0,0l0,0
		c0,0.8-0.6,1.4-1.4,1.4l0,0C200.6,61.4,200,60.8,200,60z"/>
	<path class="st0" d="M200,51.6L200,51.6L200,51.6L200,51.6L200,51.6c0-0.8,0.6-1.4,1.4-1.4l0,0c0.8,0,1.4,0.6,1.4,1.4l0,0l0,0l0,0
		l0,0l0,0c0,0.8-0.6,1.4-1.4,1.4l0,0C200.6,53,200,52.4,200,51.6z"/>
	<path class="st0" d="M200,43.2L200,43.2L200,43.2L200,43.2L200,43.2c0-0.8,0.6-1.4,1.4-1.4l0,0c0.8,0,1.4,0.6,1.4,1.4l0,0l0,0l0,0
		l0,0l0,0c0,0.8-0.6,1.4-1.4,1.4l0,0C200.6,44.6,200,44,200,43.2z"/>
	<path class="st0" d="M200,34.9L200,34.9L200,34.9L200,34.9L200,34.9c0-0.8,0.6-1.4,1.4-1.4l0,0c0.8,0,1.4,0.6,1.4,1.4l0,0l0,0l0,0
		l0,0l0,0c0,0.8-0.6,1.4-1.4,1.4l0,0C200.6,36.3,200,35.6,200,34.9z"/>
	<path class="st0" d="M200,26.5L200,26.5L200,26.5L200,26.5L200,26.5c0-0.8,0.6-1.4,1.4-1.4l0,0c0.8,0,1.4,0.6,1.4,1.4l0,0l0,0l0,0
		l0,0l0,0c0,0.8-0.6,1.4-1.4,1.4l0,0C200.6,27.9,200,27.3,200,26.5z"/>
	<path class="st0" d="M200,18.1L200,18.1L200,18.1L200,18.1L200,18.1c0-0.8,0.6-1.4,1.4-1.4l0,0c0.8,0,1.4,0.6,1.4,1.4l0,0l0,0l0,0
		l0,0l0,0c0,0.8-0.6,1.4-1.4,1.4l0,0C200.6,19.5,200,18.9,200,18.1z"/>
	<path class="st0" d="M200,9.8c0-0.8,0.6-1.4,1.4-1.4l0,0c0.8,0,1.4,0.6,1.4,1.4l0,0c0,0.8-0.6,1.4-1.4,1.4l0,0
		C200.6,11.2,200,10.5,200,9.8z"/>
	<path class="st0" d="M200,1.4c0-0.8,0.6-1.4,1.4-1.4l0,0c0.8,0,1.4,0.6,1.4,1.4l0,0c0,0.8-0.6,1.4-1.4,1.4l0,0
		C200.6,2.8,200,2.2,200,1.4z"/>
</g>
<g>
	<path class="st0" d="M246.7,38.9c-0.1,0.5-0.5,0.7-0.9,0.7s-0.7-0.3-0.9-0.7l-3.7-13.4l-3.7,13.4c-0.1,0.5-0.5,0.7-0.9,0.7
		c-0.5,0-0.8-0.3-0.9-0.7l-4.2-15.3c0-0.1-0.1-0.2-0.1-0.3c0-0.6,0.4-0.9,0.9-0.9c0.4,0,0.8,0.2,0.9,0.6l3.5,13.6l3.5-13.4
		c0.1-0.5,0.5-0.8,1-0.8s0.9,0.3,1,0.8l3.5,13.4l3.5-13.6c0.1-0.4,0.4-0.6,0.8-0.6c0.5,0,0.8,0.4,0.8,0.9c0,0.1,0,0.2-0.1,0.3
		L246.7,38.9z"/>
	<path class="st0" d="M266.8,34.6c-0.1,3.1-2.5,5.3-6.2,5.3s-6.3-2.3-6.3-6.1v-5.1c0-4,2.5-6.5,6.3-6.5c3.7,0,6.2,2.5,6.2,6.5v1.6
		c0,0.5-0.3,0.9-0.9,0.9h-9.8V34c0,2.5,1.6,4.5,4.5,4.5c3,0,4.5-1.8,4.5-3.8c0-0.5,0.3-0.8,0.8-0.8
		C266.5,33.8,266.8,34.1,266.8,34.6z M256.1,29.6h9.1v-1.1c0-2.8-1.6-4.9-4.5-4.9s-4.5,2.1-4.5,4.9v1.1H256.1z"/>
	<path class="st0" d="M291,34.5c-0.1,3.3-2.6,5.3-6.2,5.3c-3.7,0-6.3-2.5-6.3-6.5v-4.7c0-4,2.5-6.5,6.3-6.5c3.6,0,6.1,2.1,6.2,5.3
		c0,0.5-0.3,0.8-0.8,0.8s-0.8-0.3-0.8-0.8c-0.1-2-1.7-3.7-4.5-3.7c-2.9,0-4.5,2.1-4.5,4.8v5c0,2.7,1.6,4.8,4.5,4.8
		c3,0,4.5-1.6,4.5-3.8c0-0.5,0.3-0.8,0.8-0.8C290.6,33.7,291,34.1,291,34.5z"/>
	<path class="st0" d="M297.2,24.8c1-1.7,2.8-2.6,4.9-2.6c0.6,0,0.9,0.3,0.9,0.9c0,0.5-0.3,0.8-0.7,0.8c-3-0.2-4.9,2.1-4.9,4.8v10.2
		c0,0.5-0.3,0.9-0.9,0.9c-0.5,0-0.9-0.3-0.9-0.9V23c0-0.5,0.2-0.7,0.7-0.7c0.3,0,0.6,0.1,0.7,0.7L297.2,24.8z"/>
	<path class="st0" d="M317.7,34.6c-0.1,3.1-2.5,5.3-6.2,5.3s-6.3-2.3-6.3-6.1v-5.1c0-4,2.5-6.5,6.3-6.5c3.7,0,6.2,2.5,6.2,6.5v1.6
		c0,0.5-0.3,0.9-0.9,0.9H307V34c0,2.5,1.6,4.5,4.5,4.5c3,0,4.5-1.8,4.5-3.8c0-0.5,0.3-0.8,0.8-0.8C317.3,33.8,317.7,34.1,317.7,34.6
		z M307,29.6h9.1v-1.1c0-2.8-1.6-4.9-4.5-4.9s-4.5,2.1-4.5,4.9v1.1H307z"/>
	<path class="st0" d="M332.7,37.4c-1,1.6-2.8,2.5-4.8,2.5c-3.7,0-6-2.3-6-6.1v-5.4c0-3.8,2.3-6.1,6-6.1c2.1,0,3.8,0.9,4.8,2.4
		l0.2-1.6c0.1-0.6,0.3-0.7,0.7-0.7c0.5,0,0.7,0.2,0.7,0.7v16c0,0.5-0.2,0.7-0.7,0.7c-0.3,0-0.6-0.1-0.7-0.7L332.7,37.4z M332.5,33.5
		v-5c0-2.7-1.7-4.8-4.6-4.8s-4.3,2-4.3,4.4v5.7c0,2.5,1.5,4.4,4.3,4.4C330.8,38.3,332.5,36.2,332.5,33.5z"/>
	<path class="st0" d="M338.3,22.6h3.1v-3.9c0-0.5,0.3-0.9,0.9-0.9c0.5,0,0.9,0.3,0.9,0.9v3.9h3.1c0.4,0,0.7,0.3,0.7,0.7
		c0,0.4-0.3,0.8-0.7,0.8h-3.1v14.8c0,0.5-0.3,0.9-0.9,0.9c-0.5,0-0.9-0.3-0.9-0.9V24h-3.1c-0.4,0-0.7-0.3-0.7-0.7
		C337.6,22.9,337.9,22.6,338.3,22.6z"/>
	<path class="st0" d="M361.9,34.6c-0.1,3.1-2.5,5.3-6.2,5.3s-6.3-2.3-6.3-6.1v-5.1c0-4,2.5-6.5,6.3-6.5c3.7,0,6.2,2.5,6.2,6.5v1.6
		c0,0.5-0.3,0.9-0.9,0.9h-9.8V34c0,2.5,1.6,4.5,4.5,4.5c3,0,4.5-1.8,4.5-3.8c0-0.5,0.3-0.8,0.8-0.8
		C361.5,33.8,361.9,34.1,361.9,34.6z M351.2,29.6h9.1v-1.1c0-2.8-1.6-4.9-4.5-4.9s-4.5,2.1-4.5,4.9v1.1H351.2z"/>
	<path class="st0" d="M367.6,37c0.8,0,1.4,0.6,1.4,1.4c0,0.8-0.6,1.4-1.4,1.4s-1.4-0.6-1.4-1.4C366.2,37.7,366.8,37,367.6,37z"/>
	<path class="st0" d="M246.7,74.5c-0.1,0.5-0.5,0.7-0.9,0.7s-0.7-0.3-0.9-0.7l-3.7-13.4l-3.7,13.4c-0.1,0.5-0.5,0.7-0.9,0.7
		c-0.5,0-0.8-0.3-0.9-0.7l-4.2-15.3c0-0.1-0.1-0.2-0.1-0.3c0-0.6,0.4-0.9,0.9-0.9c0.4,0,0.8,0.2,0.9,0.6l3.5,13.6l3.5-13.4
		c0.1-0.5,0.5-0.8,1-0.8s0.9,0.3,1,0.8l3.5,13.4l3.5-13.6c0.1-0.4,0.4-0.6,0.8-0.6c0.5,0,0.8,0.4,0.8,0.9c0,0.1,0,0.2-0.1,0.3
		L246.7,74.5z"/>
	<path class="st0" d="M266.8,70.1c-0.1,3.1-2.5,5.3-6.2,5.3s-6.3-2.3-6.3-6.1v-5.1c0-4,2.5-6.5,6.3-6.5c3.7,0,6.2,2.5,6.2,6.5v1.6
		c0,0.5-0.3,0.9-0.9,0.9h-9.8v2.8c0,2.5,1.6,4.5,4.5,4.5c3,0,4.5-1.8,4.5-3.8c0-0.5,0.3-0.8,0.8-0.8
		C266.5,69.3,266.8,69.7,266.8,70.1z M256.1,65.1h9.1V64c0-2.8-1.6-4.9-4.5-4.9s-4.5,2.1-4.5,4.9v1.1H256.1z"/>
	<path class="st0" d="M280,51.8c0.7,0,1.3,0.6,1.3,1.3s-0.6,1.3-1.3,1.3c-0.7,0-1.3-0.6-1.3-1.3C278.7,52.4,279.3,51.8,280,51.8z
		 M280.9,58.7v15.7c0,0.5-0.4,0.8-0.9,0.8s-0.9-0.3-0.9-0.8V58.7c0-0.5,0.4-0.8,0.9-0.8S280.9,58.2,280.9,58.7z"/>
	<path class="st0" d="M287.8,60.2c1-1.6,2.8-2.5,4.8-2.5c3.7,0,6,2.3,6,6.1v10.5c0,0.5-0.3,0.9-0.9,0.9c-0.5,0-0.9-0.3-0.9-0.9V63.7
		c0-2.5-1.5-4.4-4.3-4.4c-2.9,0-4.6,2.1-4.6,4.8v10.3c0,0.5-0.3,0.9-0.9,0.9c-0.5,0-0.9-0.3-0.9-0.9V58.6c0-0.5,0.2-0.7,0.7-0.7
		c0.3,0,0.6,0.1,0.7,0.7L287.8,60.2z"/>
	<path class="st0" d="M305.4,60.2c1-1.6,2.8-2.5,4.8-2.5c3.7,0,6,2.3,6,6.1v10.5c0,0.5-0.3,0.9-0.9,0.9c-0.5,0-0.9-0.3-0.9-0.9V63.7
		c0-2.5-1.5-4.4-4.3-4.4c-2.9,0-4.6,2.1-4.6,4.8v10.3c0,0.5-0.3,0.9-0.9,0.9c-0.5,0-0.9-0.3-0.9-0.9V58.6c0-0.5,0.2-0.7,0.7-0.7
		c0.3,0,0.6,0.1,0.7,0.7L305.4,60.2z"/>
	<path class="st0" d="M333.4,68.9c0,4-2.5,6.5-6.3,6.5c-3.7,0-6.3-2.5-6.3-6.5v-4.7c0-4,2.5-6.5,6.3-6.5c3.7,0,6.3,2.5,6.3,6.5V68.9
		z M322.6,69.1c0,2.7,1.6,4.8,4.5,4.8s4.5-2.1,4.5-4.8v-5c0-2.7-1.6-4.8-4.5-4.8s-4.5,2.1-4.5,4.8V69.1z"/>
	<path class="st0" d="M338.2,58.5l4.9,14l4.9-14c0.1-0.4,0.4-0.6,0.8-0.6c0.7,0,1,0.7,0.8,1.3L344,74.5c-0.2,0.5-0.5,0.8-1,0.8
		s-0.8-0.3-1-0.8l-5.6-15.3c-0.2-0.6,0.1-1.3,0.8-1.3C337.8,57.9,338.1,58.1,338.2,58.5z"/>
	<path class="st0" d="M363.6,72.9c-1,1.6-2.8,2.5-4.8,2.5c-3.7,0-6-2.3-6-6.1v-5.4c0-3.8,2.3-6.1,6-6.1c2.1,0,3.8,0.9,4.8,2.4
		l0.2-1.6c0.1-0.6,0.3-0.7,0.7-0.7c0.5,0,0.7,0.2,0.7,0.7v16c0,0.5-0.2,0.7-0.7,0.7c-0.3,0-0.6-0.1-0.7-0.7L363.6,72.9z M363.5,69.1
		v-5c0-2.7-1.7-4.8-4.6-4.8s-4.3,2-4.3,4.4v5.7c0,2.5,1.5,4.4,4.3,4.4C361.8,73.8,363.5,71.8,363.5,69.1z"/>
	<path class="st0" d="M369.3,58.1h3.1v-3.9c0-0.5,0.3-0.9,0.9-0.9c0.5,0,0.9,0.3,0.9,0.9v3.9h3.1c0.4,0,0.7,0.3,0.7,0.7
		s-0.3,0.8-0.7,0.8h-3.1v14.8c0,0.5-0.3,0.9-0.9,0.9c-0.5,0-0.9-0.3-0.9-0.9V59.6h-3.1c-0.4,0-0.7-0.3-0.7-0.7
		C368.6,58.5,368.9,58.1,369.3,58.1z"/>
	<path class="st0" d="M392.9,70.1c-0.1,3.1-2.5,5.3-6.2,5.3s-6.3-2.3-6.3-6.1v-5.1c0-4,2.5-6.5,6.3-6.5c3.7,0,6.2,2.5,6.2,6.5v1.6
		c0,0.5-0.3,0.9-0.9,0.9h-9.8v2.8c0,2.5,1.6,4.5,4.5,4.5c3,0,4.5-1.8,4.5-3.8c0-0.5,0.3-0.8,0.8-0.8
		C392.5,69.3,392.9,69.7,392.9,70.1z M382.2,65.1h9.1V64c0-2.8-1.6-4.9-4.5-4.9s-4.5,2.1-4.5,4.9v1.1H382.2z"/>
	<path class="st0" d="M398.6,72.6c0.8,0,1.4,0.6,1.4,1.4s-0.6,1.4-1.4,1.4s-1.4-0.6-1.4-1.4S397.8,72.6,398.6,72.6z"/>
</g>
<g>
	<path class="st0" d="M21.6,18.5V29c0,6.5-4.2,10.6-11.1,10.6H2.4c-1.5,0-2.4-1-2.4-2.4V10.3c0-1.4,0.9-2.4,2.4-2.4h8.1
		C17.3,7.9,21.6,12,21.6,18.5z M5,12.4v22.7h5.5c3.9,0,6.1-2.5,6.1-6.1V18.5c0-3.7-2.2-6.1-6.1-6.1H5z"/>
	<path class="st0" d="M45.4,30.7c0,5.7-3.8,9.3-9.3,9.3s-9.3-3.6-9.3-9.3v-5.8c0-5.7,3.8-9.3,9.3-9.3s9.3,3.6,9.3,9.3V30.7z M33,7.7
		c1.3,0,2.4,1.1,2.4,2.5s-1.1,2.6-2.4,2.6c-1.4,0-2.6-1.2-2.6-2.6C30.4,8.8,31.6,7.7,33,7.7z M31.5,31.1c0,2.8,1.6,4.9,4.5,4.9
		s4.5-2.1,4.5-4.9v-6.6c0-2.8-1.6-4.9-4.5-4.9s-4.5,2.1-4.5,4.9V31.1z M39.1,7.7c1.4,0,2.5,1.1,2.5,2.5s-1.1,2.6-2.5,2.6
		s-2.5-1.2-2.5-2.6C36.6,8.8,37.7,7.7,39.1,7.7z"/>
	<path class="st0" d="M55.8,9.1v28.3c0,1.4-1,2.4-2.4,2.4s-2.4-1-2.4-2.4V9.1c0-1.4,1-2.4,2.4-2.4C54.9,6.7,55.8,7.7,55.8,9.1z"/>
	<path class="st0" d="M67.2,9.1v28.3c0,1.4-1,2.4-2.4,2.4s-2.4-1-2.4-2.4V9.1c0-1.4,1-2.4,2.4-2.4C66.3,6.7,67.2,7.7,67.2,9.1z"/>
	<path class="st0" d="M87.9,38.5l-6.1-9.9L78.5,32v5.4c0,1.4-1,2.4-2.4,2.4s-2.4-1-2.4-2.4V9.1c0-1.4,1-2.4,2.4-2.4s2.4,1,2.4,2.4
		v17l9.5-9.6c0.4-0.4,0.8-0.7,1.6-0.7c1.1,0,2.2,0.9,2.2,2.2c0,0.4-0.2,1-0.5,1.3l-6,6L92,36.2c0.2,0.4,0.3,0.9,0.3,1.3
		c0,1.3-1,2.4-2.3,2.4C89.1,39.8,88.3,39.3,87.9,38.5z"/>
	<path class="st0" d="M113.8,34.1c-0.7,3.6-4.1,6-8.6,6c-5.6,0-9.3-3.5-9.3-9.1v-6.1c0-5.7,3.8-9.3,9.2-9.3c5.3,0,9,3.6,9,9.3v1.3
		c0,1.5-1,2.4-2.4,2.4h-11.2v2.8c0,2.7,1.7,4.7,4.7,4.7c2.7,0,4-1.5,4.6-3.3c0.3-1,0.9-1.5,2-1.5C113.2,31.3,114.2,32.4,113.8,34.1z
		 M100.6,25.2h9v-0.9c0-2.8-1.6-4.9-4.5-4.9s-4.5,2.1-4.5,4.9V25.2z"/>
	<path class="st0" d="M124,18.5c1.3-1.8,3.5-3,6.2-3c5.2,0,7.9,3.5,7.9,8.7v13.2c0,1.4-1,2.4-2.4,2.4s-2.4-1-2.4-2.4v-13
		c0-2.6-1.5-4.7-4.4-4.7c-2.8,0-4.6,2.1-4.6,4.9v12.9c0,1.4-1,2.4-2.4,2.4s-2.4-1-2.4-2.4V18c0-1.4,0.8-2.3,2.2-2.3
		c0.9,0,1.9,0.4,2.1,1.5L124,18.5z"/>
	<path class="st0" d="M8.3,52.6c0-0.7,0.5-1.2,1.2-1.2h7.8c6.2,0,10.6,3.9,10.6,10s-4.4,10.1-10.6,10.1h-6.5v10.6
		c0,0.7-0.5,1.2-1.3,1.2c-0.7,0-1.3-0.5-1.3-1.2V52.6H8.3z M10.8,53.6v15.6h6.4c5,0,8.1-3.1,8.1-7.8s-3.1-7.7-8.1-7.7L10.8,53.6
		L10.8,53.6z"/>
	<path class="st0" d="M34.8,62.7c1.4-2.3,3.8-3.6,6.7-3.6c0.8,0,1.2,0.5,1.2,1.2c0,0.6-0.4,1.1-1,1.1c-4.2-0.2-6.7,2.9-6.7,6.7v14.1
		c0,0.7-0.5,1.2-1.2,1.2s-1.2-0.5-1.2-1.2V60.3c0-0.6,0.3-1,0.9-1c0.4,0,0.8,0.2,0.9,1L34.8,62.7z"/>
	<path class="st0" d="M62.9,74.6c0,5.5-3.5,9-8.7,9s-8.7-3.4-8.7-9V68c0-5.5,3.5-9,8.7-9s8.7,3.4,8.7,9V74.6z M47.9,74.7
		c0,3.8,2.3,6.6,6.3,6.6s6.3-2.9,6.3-6.6v-6.9c0-3.8-2.3-6.6-6.3-6.6s-6.3,2.9-6.3,6.6V74.7z"/>
	<path class="st0" d="M67,59.6h3.3v-1.4c0-5,2.6-7.8,7.5-7.8h1.1c0.6,0,1,0.5,1,1.1s-0.4,1-1,1h-1.2c-3.8,0-5,2.3-5,5.5v1.6h5.9
		c0.6,0,1,0.4,1,1s-0.4,1-1,1h-5.9V82c0,0.7-0.5,1.2-1.2,1.2s-1.2-0.5-1.2-1.2V61.7H67c-0.6,0-1-0.4-1-1
		C66.1,60.1,66.5,59.6,67,59.6z"/>
	<path class="st0" d="M84.4,50.9c1,0,1.8,0.8,1.8,1.8s-0.8,1.8-1.8,1.8s-1.8-0.8-1.8-1.8S83.4,50.9,84.4,50.9z M85.6,60.5v21.7
		c0,0.7-0.5,1.2-1.2,1.2s-1.2-0.5-1.2-1.2V60.5c0-0.7,0.5-1.2,1.2-1.2S85.6,59.8,85.6,60.5z"/>
	<path class="st0" d="M94.7,51.4v30.7c0,0.7-0.5,1.2-1.2,1.2s-1.2-0.5-1.2-1.2V51.4c0-0.7,0.5-1.2,1.2-1.2S94.7,50.7,94.7,51.4z"/>
	<path class="st0" d="M117.8,76.2c-0.2,4.3-3.5,7.3-8.5,7.3c-5.1,0-8.7-3.2-8.7-8.5v-7c0-5.5,3.5-9,8.7-9c5.1,0,8.5,3.4,8.5,9v2.2
		c0,0.7-0.5,1.2-1.2,1.2H103v3.8c0,3.5,2.3,6.3,6.3,6.3c4.1,0,6.2-2.5,6.3-5.2c0-0.7,0.4-1.2,1.1-1.2
		C117.3,75.1,117.9,75.6,117.8,76.2z M103,69.3h12.5v-1.5c0-3.8-2.3-6.7-6.3-6.7s-6.3,2.9-6.3,6.7v1.5H103z"/>
	<path class="st0" d="M128,71.3c-2.6-0.8-5.3-2.3-5.3-5.9c0-3.5,3.2-6.4,7.7-6.4c4.8,0,7.8,2.5,8.1,6.2c0,0.7-0.4,1.2-1.1,1.2
		s-1.1-0.5-1.2-1.2c-0.2-2.1-2.1-4.1-5.8-4.1c-2.4,0-5.3,1.3-5.3,4.1c0,1.9,1.1,2.9,3.1,3.6l4.3,1.3c3.5,1.1,6.2,2.5,6.2,6.4
		c0,4.2-3.2,7-8.1,7c-5,0-8.5-2.5-8.6-6.7c0-0.6,0.4-1.2,1.1-1.2c0.6,0,1.2,0.4,1.2,1.1c0,2.6,2.3,4.7,6.3,4.7
		c3.7,0,5.7-1.9,5.7-4.6c0-2.3-1.1-3.4-3.5-4.1L128,71.3z"/>
</g>
</svg>
