<svg xmlns="http://www.w3.org/2000/svg" viewBox="0 0 600 230.435"><defs><style>.c{fill:#a5b0ca}</style></defs><path fill="#00305b" d="M0 0h600v230.435H0z"/><path d="M244.515 131.893v16.24h-8.4v-38.92h8.4v15.12l20.16-15.12h12.04l-23.52 17.92 26.04 21h-12.88l-20.72-16.8zm41.159 16.24l20.44-39.2h7.84l20.72 39.2h-8.96l-4.76-8.4h-22.96l-4.2 8.4zm16.24-15.4h15.68l-8.4-15.96zm76.163 15.4v-38.92h6.16l28.56 25.2v-25.48h9.52v39.2h-7.28l-28.84-25.76v25.76zm63.832-39.2h23.8c11.2 0 20.16 6.16 20.16 19.6 0 13.16-8.68 19.6-20.16 19.6h-23.8zm8.68 31.92h12.04c9.8 0 14.28-2.24 14.28-12.32 0-10.36-4.2-12.32-13.72-12.32h-12.6zm52.362 7.28v-39.2h8.12v32.48h27.44v6.72zM348.95 109.211h8.12v38.92h-8.12z" fill="#fff"/><path class="c" d="M174.864 124.977l20.16 7.84-54.319 47.88-66.359-25.2 15.68-14 46.2 17.64z"/><path class="c" d="M169.538 100.057l20.44 7.84-54.319 48.16-66.639-25.48 15.96-13.72 45.919 17.36z"/><path class="c" d="M164.501 75.417l20.16 7.56-54.319 48.16-66.359-25.2 15.4-14 46.2 17.64z"/></svg>